<?xml version="1.0" standalone="no"?>
<!DOCTYPE svg PUBLIC "-//W3C//DTD SVG 20010904//EN"
 "http://www.w3.org/TR/2001/REC-SVG-20010904/DTD/svg10.dtd">
<svg version="1.0" xmlns="http://www.w3.org/2000/svg"
 width="700.000000pt" height="700.000000pt" viewBox="0 0 700.000000 700.000000"
 preserveAspectRatio="xMidYMid meet">
<metadata>
Created by potrace 1.11, written by Peter Selinger 2001-2013
</metadata>
<g transform="translate(0.000000,700.000000) scale(0.100000,-0.100000)"
fill="#000000" stroke="none">
<path d="M3738 5405 c-1 -2 -59 -6 -128 -9 -146 -7 -226 -13 -278 -20 -20 -3
-59 -8 -87 -12 -130 -16 -169 -23 -273 -51 -51 -13 -101 -26 -110 -28 -47 -10
-147 -39 -246 -71 -446 -144 -811 -316 -1161 -547 -86 -57 -224 -155 -235
-167 -3 -3 -32 -27 -65 -52 -60 -45 -212 -179 -291 -254 -224 -214 -267 -250
-392 -322 -70 -40 -180 -98 -245 -130 -64 -31 -117 -59 -117 -62 0 -3 15 -5
33 -5 29 1 89 -7 145 -19 41 -9 121 -58 154 -95 18 -20 60 -68 92 -106 85
-101 285 -297 401 -393 122 -102 122 -101 165 -132 19 -13 37 -27 40 -30 3 -4
34 -26 70 -50 36 -24 67 -47 68 -52 2 -4 8 -8 13 -8 6 0 36 -17 67 -38 145
-98 387 -227 592 -315 104 -45 362 -144 397 -152 10 -3 50 -14 88 -26 142 -43
296 -80 470 -115 34 -7 148 -25 190 -30 22 -3 45 -7 52 -9 7 -2 45 -7 85 -10
40 -4 84 -9 98 -11 109 -18 528 -25 699 -11 82 6 177 18 261 33 14 2 52 8 85
14 33 5 69 12 80 14 345 79 695 212 965 369 47 27 105 61 129 75 60 33 291
193 371 255 210 164 476 418 615 588 93 112 148 188 196 267 56 94 56 94 37
115 -11 12 -58 76 -105 142 -282 395 -629 710 -1063 968 -122 73 -363 193
-445 223 -27 9 -54 21 -60 24 -21 15 -295 104 -385 125 -8 2 -53 12 -100 24
-92 21 -171 37 -235 47 -22 3 -51 7 -65 9 -14 2 -50 7 -80 10 -30 3 -68 8 -85
10 -16 3 -109 7 -205 10 -96 4 -180 8 -187 10 -6 2 -13 2 -15 0z"/>
</g>
</svg>
